<?xml version="1.0" encoding="UTF-8"?>
<svg id="Layer_1" data-name="Layer 1" xmlns="http://www.w3.org/2000/svg" viewBox="0 0 1080 1080">
  <defs>
    <style>
      .cls-1 {
        stroke: #30426a;
        stroke-miterlimit: 10;
      }

      .cls-1, .cls-2 {
        fill: #30426a;
      }

      .cls-3 {
        fill: #e5e5e5;
      }

      .cls-4 {
        fill: #f16102;
      }
    </style>
  </defs>
  <rect class="cls-3" x="0" width="1080" height="1080"/>
  <g>
    <polygon class="cls-2" points="235.67 778.48 235.67 844.28 216.61 844.28 216.61 760.45 235.67 778.48"/>
    <path class="cls-2" d="M312.83,844.28h26.95l-46.09-46.33-1.64-1.64c8.99-2.84,16.42-9.18,20.7-17.42,2.53-4.87,3.97-10.41,3.97-16.28s-1.43-11.41-3.97-16.28c-5.89-11.33-17.73-19.06-31.37-19.06h-84.42l19.06,19.06h65.36c8.99,0,16.28,7.29,16.28,16.28s-7.29,16.28-16.28,16.28h-33.7l65.15,65.39Z"/>
    <g>
      <path class="cls-2" d="M405.32,776.64v17.04h71.53v-17.04h-71.53ZM405.32,827.24v17.04h71.53v-17.04h-71.53ZM405.32,727.27v16.71l17.04.33h54.5v-17.04h-71.53Z"/>
      <path class="cls-2" d="M667.53,727.27l-33.69,117.01h15.66l37.44-117.01h-19.41Z"/>
      <polygon class="cls-2" points="630.12 844.28 621.78 844.28 584.34 727.27 603.75 727.27 633.79 831.06 630.12 844.28"/>
      <path class="cls-2" d="M878.7,739.66c-4.95-5.92-11.14-10.06-18.58-12.44l-4.74,16.79c12.49,4.86,18.73,18.01,18.73,39.44,0,15.85-2.67,27.8-8.02,35.85-5.35,8-13.35,11.99-24,11.99-4,0-7.6-.56-10.84-1.66l-4.22,14.97c4.59,1.42,9.56,2.13,14.91,2.13,16.25,0,28.5-5.7,36.76-17.12,8.3-11.47,12.45-26.7,12.45-45.7s-4.15-34.41-12.45-44.25ZM810.52,785.2c0-15.23,2.73-26.27,8.18-33.09,5.5-6.82,13.53-10.24,24.08-10.24,3.35,0,6.43.36,9.25,1.07l4.7-16.67c-4.08-.97-8.5-1.45-13.26-1.45-15.49,0-27.69,4.95-36.61,14.83-8.91,9.83-13.38,24.73-13.38,44.71s4.43,36.2,13.3,46.69c4.82,5.64,10.46,9.77,16.91,12.36l4.28-15.17c-11.63-5.86-17.45-20.21-17.45-43.04Z"/>
      <g>
        <path class="cls-1" d="M207.35,960.73l12.91-47.21h11.82l12.84,47.21h-5.47l-3.35-11.96h-19.95l-3.35,11.96h-5.47ZM217.33,943.92h17.63l-7.04-25.76h-3.55l-7.04,25.76Z"/>
        <path class="cls-1" d="M269.87,961.41c-1.37,0-2.66-.15-3.89-.44-1.23-.3-2.36-.81-3.38-1.54-1.02-.73-1.92-1.74-2.7-3.04s-1.37-2.97-1.78-5.02c-.41-2.05-.62-4.53-.62-7.45,0-4.05.48-7.41,1.44-10.08.96-2.66,2.48-4.66,4.58-5.98,2.1-1.32,4.87-1.98,8.34-1.98.86,0,1.82.05,2.87.14,1.05.09,2.06.21,3.04.34.98.14,1.76.27,2.36.41v-15.03h5.33v48.99h-5.26v-2.25c-.73.41-1.67.84-2.83,1.3-1.16.46-2.39.84-3.69,1.16-1.3.32-2.56.48-3.79.48ZM270.55,956.63c1.18,0,2.38-.14,3.59-.41,1.21-.27,2.33-.6,3.38-.99,1.05-.39,1.91-.74,2.6-1.06v-22.89c-.55-.09-1.3-.19-2.25-.31-.96-.11-1.95-.22-2.97-.31-1.02-.09-1.95-.14-2.77-.14-2.32,0-4.15.5-5.47,1.5-1.32,1-2.27,2.49-2.84,4.47-.57,1.98-.85,4.45-.85,7.41,0,2.73.2,4.93.62,6.59.41,1.66.97,2.94,1.67,3.83.71.89,1.51,1.49,2.43,1.81.91.32,1.87.48,2.87.48Z"/>
        <path class="cls-1" d="M309.7,960.73l-9.57-34.16h5.74l7.79,29.58h2.6l8.06-29.58h5.47l-9.57,34.16h-10.52Z"/>
        <path class="cls-1" d="M356.02,961.41c-3.42,0-6.12-.66-8.1-1.98s-3.41-3.28-4.27-5.88c-.87-2.6-1.3-5.83-1.3-9.7,0-4.33.59-7.8,1.78-10.42,1.18-2.62,2.85-4.53,4.99-5.74,2.14-1.21,4.67-1.81,7.58-1.81,4.55,0,7.99,1.26,10.32,3.79,2.32,2.53,3.48,6.59,3.48,12.2l-.27,4.03h-22.48c.04,3.55.71,6.24,1.98,8.06,1.27,1.82,3.57,2.73,6.9,2.73,1.27,0,2.67-.03,4.2-.1,1.53-.07,3.04-.15,4.54-.24,1.5-.09,2.78-.18,3.83-.27l.14,4.17c-1.09.18-2.43.36-4,.55s-3.18.33-4.82.44c-1.64.11-3.14.17-4.51.17ZM347.76,941.59h17.42c0-4.19-.67-7.12-2.02-8.78-1.34-1.66-3.5-2.49-6.46-2.49-1.91,0-3.53.38-4.85,1.13-1.32.75-2.33,1.95-3.04,3.59-.71,1.64-1.06,3.83-1.06,6.56Z"/>
        <path class="cls-1" d="M386.56,960.73v-34.16h5.26v4.58c.86-.59,1.96-1.24,3.28-1.95,1.32-.71,2.78-1.38,4.37-2.02,1.59-.64,3.19-1.09,4.78-1.37v5.4c-1.55.32-3.12.74-4.71,1.26-1.59.52-3.06,1.08-4.41,1.67-1.34.59-2.45,1.12-3.31,1.57v25.01h-5.26Z"/>
        <path class="cls-1" d="M429.61,961.48c-2.37,0-4.25-.36-5.64-1.09-1.39-.73-2.38-1.99-2.97-3.79-.59-1.8-.89-4.34-.89-7.62v-17.83h-4.85v-4.58h4.85v-10.45h5.26v10.45h10.73v4.58h-10.73v16.26c0,2.42.1,4.29.31,5.64.21,1.34.65,2.29,1.33,2.83.68.55,1.75.82,3.21.82.45,0,1.05-.02,1.78-.07.73-.04,1.47-.1,2.22-.17s1.42-.12,2.02-.17l.34,4.44c-.64.09-1.39.19-2.25.31-.87.11-1.72.22-2.56.31-.84.09-1.56.14-2.15.14Z"/>
        <path class="cls-1" d="M450.52,919.05v-6.15h5.26v6.15h-5.26ZM450.52,960.73v-34.16h5.26v34.16h-5.26Z"/>
        <path class="cls-1" d="M484.41,961.41c-1.05,0-2.31-.07-3.79-.21-1.48-.14-2.95-.31-4.41-.51s-2.76-.4-3.89-.58l.27-4.58c1.14.14,2.43.3,3.86.48,1.44.18,2.84.33,4.2.44,1.37.11,2.46.17,3.28.17,1.87,0,3.42-.17,4.65-.51s2.16-.92,2.8-1.74c.64-.82.96-1.98.96-3.48,0-1.14-.24-2.03-.72-2.66-.48-.64-1.37-1.16-2.66-1.57s-3.18-.8-5.64-1.16c-2.55-.41-4.68-.92-6.39-1.54-1.71-.62-2.97-1.54-3.79-2.77-.82-1.23-1.23-2.98-1.23-5.26,0-2.55.59-4.55,1.78-6.01,1.18-1.46,2.72-2.49,4.61-3.11,1.89-.62,3.86-.92,5.91-.92,1.27,0,2.68.07,4.2.21,1.53.14,3.02.31,4.47.51,1.46.21,2.71.4,3.76.58l-.14,4.58c-1.09-.18-2.37-.35-3.83-.51-1.46-.16-2.92-.3-4.37-.41-1.46-.11-2.73-.17-3.83-.17-1.37,0-2.6.15-3.69.44-1.09.3-1.96.81-2.6,1.54-.64.73-.96,1.75-.96,3.07,0,1,.23,1.81.68,2.43.45.62,1.32,1.13,2.6,1.54,1.27.41,3.12.82,5.53,1.23,2.82.46,5.09,1.02,6.8,1.71s2.95,1.64,3.72,2.87c.77,1.23,1.16,2.96,1.16,5.19,0,2.64-.54,4.75-1.61,6.32-1.07,1.57-2.6,2.7-4.58,3.38s-4.36,1.02-7.14,1.02Z"/>
        <path class="cls-1" d="M513.72,919.05v-6.15h5.26v6.15h-5.26ZM513.72,960.73v-34.16h5.26v34.16h-5.26Z"/>
        <path class="cls-1" d="M536.95,960.73v-34.16h5.26v2.39c.77-.45,1.74-.91,2.9-1.37,1.16-.45,2.4-.85,3.72-1.2,1.32-.34,2.6-.51,3.83-.51,2.37,0,4.3.31,5.81.92,1.5.62,2.68,1.59,3.52,2.94.84,1.34,1.44,3.07,1.78,5.19.34,2.12.51,4.68.51,7.69v18.11h-5.33v-17.9c0-2.96-.17-5.33-.51-7.11-.34-1.78-1.02-3.06-2.05-3.86-1.02-.8-2.59-1.2-4.68-1.2-1.14,0-2.31.13-3.52.38-1.21.25-2.33.57-3.38.96-1.05.39-1.91.76-2.6,1.13v27.6h-5.26Z"/>
        <path class="cls-1" d="M595.02,976.78c-3.55,0-6.41-.31-8.57-.92-2.16-.62-3.74-1.67-4.71-3.18-.98-1.5-1.47-3.55-1.47-6.15,0-1.32.21-2.45.62-3.38.41-.93,1.01-1.8,1.81-2.6.8-.8,1.79-1.63,2.97-2.49-.59-.45-1.06-1.1-1.4-1.95-.34-.84-.51-1.79-.51-2.84,0-.32.12-.8.38-1.43.25-.64.56-1.31.92-2.02.36-.71.71-1.35,1.02-1.95-.96-.45-1.83-1.08-2.63-1.88-.8-.8-1.45-1.88-1.95-3.25-.5-1.37-.75-3.1-.75-5.19,0-2.82.53-5.09,1.61-6.8,1.07-1.71,2.57-2.95,4.51-3.72,1.94-.77,4.16-1.16,6.66-1.16,1.23,0,2.53.09,3.89.27,1.37.18,2.44.39,3.21.62l10.18-.27v4.51l-6.42-.14c.64.64,1.17,1.48,1.61,2.53.43,1.05.65,2.44.65,4.17,0,2.96-.5,5.28-1.5,6.97-1,1.69-2.48,2.87-4.44,3.55-1.96.68-4.42,1.02-7.38,1.02-.32,0-.85-.03-1.61-.1-.75-.07-1.31-.12-1.67-.17-.27.64-.55,1.37-.82,2.19-.27.82-.41,1.39-.41,1.71,0,.68.08,1.22.24,1.61.16.39.5.69,1.02.92.52.23,1.33.38,2.43.44,1.09.07,2.6.1,4.51.1,3.28,0,5.9.27,7.86.82,1.96.55,3.36,1.54,4.2,2.97.84,1.43,1.26,3.52,1.26,6.25,0,3.87-1.34,6.66-4.03,8.37-2.69,1.71-6.45,2.56-11.27,2.56ZM595.09,972.27c3.37,0,5.85-.48,7.45-1.43,1.59-.96,2.39-2.53,2.39-4.71,0-1.69-.26-2.93-.79-3.72-.52-.8-1.4-1.32-2.63-1.57-1.23-.25-2.87-.38-4.92-.38-.41,0-.98-.01-1.71-.03-.73-.02-1.48-.04-2.25-.07-.78-.02-1.47-.06-2.08-.1-.61-.04-1.04-.07-1.26-.07-.91.68-1.65,1.31-2.22,1.88-.57.57-.97,1.16-1.2,1.78-.23.62-.34,1.35-.34,2.22,0,1.5.27,2.71.82,3.62.55.91,1.51,1.57,2.9,1.98,1.39.41,3.34.62,5.84.62ZM593.52,944.87c2.82,0,4.83-.56,6.01-1.67,1.18-1.12,1.78-2.99,1.78-5.64s-.59-4.53-1.78-5.67c-1.19-1.14-3.19-1.71-6.01-1.71-2.64,0-4.54.57-5.71,1.71-1.16,1.14-1.74,3.03-1.74,5.67s.58,4.52,1.74,5.64c1.16,1.12,3.06,1.67,5.71,1.67Z"/>
        <path class="cls-1" d="M644.97,960.73l12.91-47.21h11.82l12.84,47.21h-5.47l-3.35-11.96h-19.95l-3.35,11.96h-5.47ZM654.94,943.92h17.63l-7.04-25.76h-3.55l-7.04,25.76Z"/>
        <path class="cls-1" d="M709.94,976.78c-3.55,0-6.41-.31-8.57-.92-2.16-.62-3.74-1.67-4.71-3.18-.98-1.5-1.47-3.55-1.47-6.15,0-1.32.21-2.45.62-3.38.41-.93,1.01-1.8,1.81-2.6.8-.8,1.79-1.63,2.97-2.49-.59-.45-1.06-1.1-1.4-1.95-.34-.84-.51-1.79-.51-2.84,0-.32.12-.8.38-1.43.25-.64.56-1.31.92-2.02.36-.71.71-1.35,1.02-1.95-.96-.45-1.83-1.08-2.63-1.88-.8-.8-1.45-1.88-1.95-3.25-.5-1.37-.75-3.1-.75-5.19,0-2.82.53-5.09,1.61-6.8,1.07-1.71,2.57-2.95,4.51-3.72,1.94-.77,4.16-1.16,6.66-1.16,1.23,0,2.53.09,3.89.27,1.37.18,2.44.39,3.21.62l10.18-.27v4.51l-6.42-.14c.64.64,1.17,1.48,1.61,2.53.43,1.05.65,2.44.65,4.17,0,2.96-.5,5.28-1.5,6.97-1,1.69-2.48,2.87-4.44,3.55-1.96.68-4.42,1.02-7.38,1.02-.32,0-.85-.03-1.61-.1-.75-.07-1.31-.12-1.67-.17-.27.64-.55,1.37-.82,2.19-.27.82-.41,1.39-.41,1.71,0,.68.08,1.22.24,1.61.16.39.5.69,1.02.92.52.23,1.33.38,2.43.44,1.09.07,2.6.1,4.51.1,3.28,0,5.9.27,7.86.82,1.96.55,3.36,1.54,4.2,2.97.84,1.43,1.26,3.52,1.26,6.25,0,3.87-1.34,6.66-4.03,8.37-2.69,1.71-6.45,2.56-11.27,2.56ZM710.01,972.27c3.37,0,5.85-.48,7.45-1.43,1.59-.96,2.39-2.53,2.39-4.71,0-1.69-.26-2.93-.79-3.72-.52-.8-1.4-1.32-2.63-1.57-1.23-.25-2.87-.38-4.92-.38-.41,0-.98-.01-1.71-.03-.73-.02-1.48-.04-2.25-.07-.78-.02-1.47-.06-2.08-.1-.61-.04-1.04-.07-1.26-.07-.91.68-1.65,1.31-2.22,1.88-.57.57-.97,1.16-1.2,1.78-.23.62-.34,1.35-.34,2.22,0,1.5.27,2.71.82,3.62.55.91,1.51,1.57,2.9,1.98,1.39.41,3.34.62,5.84.62ZM708.44,944.87c2.82,0,4.83-.56,6.01-1.67,1.18-1.12,1.78-2.99,1.78-5.64s-.59-4.53-1.78-5.67c-1.19-1.14-3.19-1.71-6.01-1.71-2.64,0-4.54.57-5.71,1.71-1.16,1.14-1.74,3.03-1.74,5.67s.58,4.52,1.74,5.64c1.16,1.12,3.06,1.67,5.71,1.67Z"/>
        <path class="cls-1" d="M751.62,961.41c-3.42,0-6.12-.66-8.1-1.98s-3.41-3.28-4.27-5.88c-.87-2.6-1.3-5.83-1.3-9.7,0-4.33.59-7.8,1.78-10.42,1.18-2.62,2.85-4.53,4.99-5.74,2.14-1.21,4.67-1.81,7.58-1.81,4.55,0,7.99,1.26,10.32,3.79,2.32,2.53,3.48,6.59,3.48,12.2l-.27,4.03h-22.48c.04,3.55.71,6.24,1.98,8.06,1.27,1.82,3.57,2.73,6.9,2.73,1.27,0,2.67-.03,4.2-.1,1.53-.07,3.04-.15,4.54-.24,1.5-.09,2.78-.18,3.83-.27l.14,4.17c-1.09.18-2.43.36-4,.55s-3.18.33-4.82.44c-1.64.11-3.14.17-4.51.17ZM743.35,941.59h17.42c0-4.19-.67-7.12-2.02-8.78-1.34-1.66-3.5-2.49-6.46-2.49-1.91,0-3.53.38-4.85,1.13-1.32.75-2.33,1.95-3.04,3.59-.71,1.64-1.06,3.83-1.06,6.56Z"/>
        <path class="cls-1" d="M782.16,960.73v-34.16h5.26v2.39c.77-.45,1.74-.91,2.9-1.37,1.16-.45,2.4-.85,3.72-1.2,1.32-.34,2.6-.51,3.83-.51,2.37,0,4.3.31,5.81.92,1.5.62,2.68,1.59,3.52,2.94.84,1.34,1.44,3.07,1.78,5.19.34,2.12.51,4.68.51,7.69v18.11h-5.33v-17.9c0-2.96-.17-5.33-.51-7.11-.34-1.78-1.02-3.06-2.05-3.86-1.02-.8-2.59-1.2-4.68-1.2-1.14,0-2.31.13-3.52.38-1.21.25-2.33.57-3.38.96-1.05.39-1.91.76-2.6,1.13v27.6h-5.26Z"/>
        <path class="cls-1" d="M839.69,961.41c-3.6,0-6.42-.6-8.47-1.81-2.05-1.21-3.5-3.15-4.34-5.84-.84-2.69-1.26-6.24-1.26-10.66,0-4.14.47-7.48,1.4-10.01.93-2.53,2.45-4.36,4.54-5.5,2.09-1.14,4.83-1.71,8.2-1.71.77,0,1.72.06,2.83.17,1.12.11,2.27.25,3.45.41,1.18.16,2.21.31,3.07.44l-.2,4.37c-.78-.09-1.66-.18-2.67-.27-1-.09-1.98-.17-2.94-.24-.96-.07-1.75-.1-2.39-.1-2.6,0-4.61.41-6.05,1.23-1.44.82-2.44,2.13-3.01,3.93-.57,1.8-.85,4.23-.85,7.28,0,3.33.25,5.98.75,7.96.5,1.98,1.46,3.41,2.87,4.27,1.41.87,3.51,1.3,6.29,1.3.64,0,1.45-.03,2.43-.1.98-.07,1.98-.15,3.01-.24,1.02-.09,1.92-.16,2.7-.2l.14,4.37c-.91.14-1.96.27-3.14.41-1.19.14-2.35.26-3.48.38-1.14.11-2.1.17-2.87.17Z"/>
        <path class="cls-1" d="M872.08,975.83l4.44-15.1h-5.12l-9.63-34.16h5.33l8.34,29.58h2.32l8.4-29.58h5.33l-14.07,49.26h-5.33Z"/>
      </g>
      <g>
        <polygon class="cls-4" points="365.11 322.25 365.11 662.1 274.07 662.1 274.07 237.47 365.11 322.25"/>
        <path class="cls-2" d="M762.41,662.1h128.74l-222.72-221.3-7.84-7.84c42.92-13.58,78.42-43.85,98.88-83.2,12.1-23.27,18.94-49.71,18.94-77.76s-6.84-54.49-18.95-77.76c-28.12-54.09-84.67-91.03-149.85-91.03H203.51l91.03,91.03h315.08c42.95,0,77.76,34.81,77.76,77.76s-34.81,77.76-77.76,77.76h-160.95l313.74,312.33Z"/>
      </g>
    </g>
  </g>
</svg>