<?xml version="1.0" encoding="UTF-8"?>
<svg id="Layer_1" data-name="Layer 1" xmlns="http://www.w3.org/2000/svg" viewBox="0 0 3971.99 1080">
  <defs>
    <style>
      .cls-1 {
        stroke: #30426a;
        stroke-miterlimit: 10;
      }

      .cls-1, .cls-2 {
        fill: #30426a;
      }

      .cls-3 {
        fill: #e5e5e5;
      }

      .cls-4 {
        fill: #f16102;
      }
    </style>
  </defs>
  <rect class="cls-3" y="0" width="3971.99" height="1080"/>
  <g>
    <polygon class="cls-2" points="1728.92 412.2 1728.92 556.93 1687 556.93 1687 372.54 1728.92 412.2"/>
    <path class="cls-2" d="M1898.63,556.93h59.29l-101.39-101.91-3.61-3.61c19.76-6.25,36.11-20.19,45.53-38.31,5.57-10.72,8.72-22.89,8.72-35.81s-3.15-25.09-8.72-35.81c-12.95-24.91-38.99-41.92-69.01-41.92h-185.69l41.92,41.92h143.77c19.78,0,35.81,16.03,35.81,35.81s-16.03,35.81-35.81,35.81h-74.12l143.3,143.83Z"/>
    <path class="cls-2" d="M2102.07,408.16v37.49h157.34v-37.49h-157.34ZM2102.07,519.45v37.49h157.34v-37.49h-157.34ZM2102.07,299.56v36.75l37.47.73h119.87v-37.49h-157.34Z"/>
    <path class="cls-2" d="M2678.81,299.56l-74.11,257.37h34.45l82.36-257.37h-42.7Z"/>
    <polygon class="cls-2" points="2596.53 556.93 2578.18 556.93 2495.82 299.56 2538.52 299.56 2604.58 527.84 2596.53 556.93"/>
    <path class="cls-2" d="M3143.27,326.81c-10.88-13.02-24.5-22.13-40.87-27.36l-10.42,36.93c27.47,10.7,41.2,39.61,41.2,86.74,0,34.86-5.88,61.14-17.64,78.85-11.78,17.59-29.37,26.38-52.79,26.38-8.79,0-16.73-1.23-23.85-3.66l-9.28,32.93c10.1,3.12,21.02,4.69,32.8,4.69,35.74,0,62.69-12.55,80.86-37.65,18.26-25.22,27.39-58.72,27.39-100.52s-9.13-75.7-27.39-97.32ZM2993.32,426.99c0-33.5,6-57.78,17.99-72.79,12.1-15.01,29.76-22.53,52.96-22.53,7.37,0,14.15.78,20.34,2.35l10.34-36.66c-8.97-2.12-18.69-3.18-29.16-3.18-34.08,0-60.91,10.88-80.53,32.62-19.6,21.63-29.42,54.39-29.42,98.34s9.75,79.62,29.26,102.7c10.6,12.41,23,21.48,37.2,27.18l9.41-33.36c-25.58-12.89-38.37-44.45-38.37-94.68Z"/>
    <g>
      <path class="cls-1" d="M1666.63,813.05l28.4-103.84h26l28.25,103.84h-12.02l-7.37-26.3h-43.88l-7.37,26.3h-12.02ZM1688.57,776.09h38.77l-15.48-56.66h-7.81l-15.48,56.66Z"/>
      <path class="cls-1" d="M1804.14,814.56c-3.01,0-5.86-.33-8.57-.98-2.71-.65-5.18-1.78-7.44-3.38-2.25-1.6-4.23-3.83-5.94-6.69-1.7-2.86-3.01-6.54-3.91-11.05-.9-4.51-1.35-9.97-1.35-16.38,0-8.92,1.05-16.31,3.16-22.17,2.1-5.86,5.46-10.24,10.07-13.15,4.61-2.9,10.72-4.36,18.34-4.36,1.9,0,4.01.1,6.31.3,2.3.2,4.53.45,6.69.75,2.15.3,3.88.6,5.18.9v-33.06h11.72v107.75h-11.57v-4.96c-1.6.9-3.68,1.86-6.24,2.86-2.56,1-5.26,1.86-8.12,2.56-2.86.7-5.63,1.05-8.34,1.05ZM1805.64,804.04c2.6,0,5.23-.3,7.89-.9,2.65-.6,5.13-1.33,7.44-2.18,2.3-.85,4.21-1.63,5.71-2.33v-50.34c-1.2-.2-2.86-.42-4.96-.68-2.1-.25-4.28-.47-6.54-.68-2.25-.2-4.28-.3-6.09-.3-5.11,0-9.12,1.1-12.02,3.31-2.91,2.2-4.99,5.48-6.24,9.84-1.25,4.36-1.88,9.79-1.88,16.31,0,6.01.45,10.85,1.35,14.5.9,3.66,2.13,6.46,3.68,8.42,1.55,1.95,3.33,3.28,5.33,3.98,2,.7,4.11,1.05,6.31,1.05Z"/>
      <path class="cls-1" d="M1891.75,813.05l-21.04-75.14h12.62l17.13,65.07h5.71l17.73-65.07h12.02l-21.04,75.14h-23.14Z"/>
      <path class="cls-1" d="M1993.64,814.56c-7.51,0-13.45-1.45-17.81-4.36-4.36-2.9-7.49-7.21-9.39-12.92-1.9-5.71-2.86-12.82-2.86-21.34,0-9.52,1.3-17.16,3.91-22.92,2.6-5.76,6.26-9.97,10.97-12.62,4.71-2.65,10.27-3.98,16.68-3.98,10.02,0,17.58,2.78,22.69,8.34,5.11,5.56,7.66,14.5,7.66,26.83l-.6,8.87h-49.44c.1,7.81,1.55,13.73,4.36,17.73,2.8,4.01,7.86,6.01,15.18,6.01,2.8,0,5.88-.07,9.24-.23,3.36-.15,6.69-.32,9.99-.52,3.31-.2,6.11-.4,8.42-.6l.3,9.17c-2.4.4-5.33.8-8.79,1.2s-6.99.73-10.59.98c-3.61.25-6.91.37-9.92.37ZM1975.46,770.98h38.32c0-9.22-1.48-15.65-4.43-19.31-2.96-3.66-7.69-5.49-14.2-5.49-4.21,0-7.77.83-10.67,2.48-2.91,1.65-5.13,4.28-6.69,7.89-1.56,3.61-2.33,8.41-2.33,14.43Z"/>
      <path class="cls-1" d="M2060.81,813.05v-75.14h11.57v10.07c1.9-1.3,4.31-2.73,7.21-4.28,2.9-1.55,6.11-3.03,9.62-4.43,3.51-1.4,7.01-2.4,10.52-3.01v11.87c-3.41.7-6.86,1.63-10.37,2.78-3.51,1.15-6.74,2.38-9.69,3.68-2.96,1.3-5.39,2.46-7.29,3.46v55h-11.57Z"/>
      <path class="cls-1" d="M2155.49,814.71c-5.21,0-9.34-.8-12.4-2.4-3.06-1.6-5.24-4.38-6.54-8.34-1.3-3.96-1.95-9.54-1.95-16.76v-39.22h-10.67v-10.07h10.67v-22.99h11.57v22.99h23.59v10.07h-23.59v35.77c0,5.31.23,9.45.68,12.4.45,2.96,1.43,5.03,2.93,6.24,1.5,1.2,3.86,1.8,7.06,1.8,1,0,2.3-.05,3.91-.15,1.6-.1,3.23-.23,4.88-.38s3.13-.27,4.43-.38l.75,9.77c-1.4.2-3.06.42-4.96.68-1.9.25-3.78.47-5.63.68-1.86.2-3.43.3-4.73.3Z"/>
      <path class="cls-1" d="M2201.48,721.38v-13.53h11.57v13.53h-11.57ZM2201.48,813.05v-75.14h11.57v75.14h-11.57Z"/>
      <path class="cls-1" d="M2276.02,814.56c-2.31,0-5.09-.15-8.34-.45-3.26-.3-6.49-.67-9.69-1.13s-6.06-.88-8.56-1.28l.6-10.07c2.5.3,5.34.65,8.49,1.05,3.16.4,6.24.73,9.24.98,3.01.25,5.41.38,7.21.38,4.11,0,7.51-.38,10.22-1.13s4.76-2.03,6.16-3.83c1.4-1.8,2.1-4.36,2.1-7.66,0-2.5-.53-4.46-1.58-5.86-1.05-1.4-3.01-2.56-5.86-3.46-2.86-.9-6.99-1.75-12.4-2.55-5.61-.9-10.29-2.03-14.05-3.38-3.76-1.35-6.54-3.38-8.34-6.09-1.8-2.71-2.71-6.56-2.71-11.57,0-5.61,1.3-10.02,3.91-13.22,2.6-3.2,5.99-5.48,10.14-6.84,4.16-1.35,8.49-2.03,13-2.03,2.8,0,5.88.15,9.24.45,3.35.3,6.63.67,9.84,1.13,3.2.45,5.96.88,8.27,1.28l-.3,10.07c-2.4-.4-5.21-.78-8.41-1.13-3.21-.35-6.41-.65-9.62-.9-3.21-.25-6.01-.38-8.41-.38-3.01,0-5.71.33-8.12.98-2.4.65-4.31,1.78-5.71,3.38-1.4,1.6-2.1,3.86-2.1,6.76,0,2.2.5,3.98,1.5,5.33,1,1.35,2.9,2.48,5.71,3.38,2.8.9,6.86,1.8,12.17,2.71,6.21,1,11.2,2.25,14.95,3.76s6.49,3.61,8.19,6.31c1.7,2.7,2.56,6.51,2.56,11.42,0,5.81-1.18,10.45-3.53,13.9-2.35,3.46-5.71,5.94-10.07,7.44s-9.59,2.25-15.7,2.25Z"/>
      <path class="cls-1" d="M2340.49,721.38v-13.53h11.57v13.53h-11.57ZM2340.49,813.05v-75.14h11.57v75.14h-11.57Z"/>
      <path class="cls-1" d="M2391.58,813.05v-75.14h11.57v5.26c1.7-1,3.83-2,6.39-3.01,2.55-1,5.28-1.88,8.19-2.63,2.9-.75,5.71-1.13,8.42-1.13,5.21,0,9.47.68,12.77,2.03,3.31,1.35,5.88,3.51,7.74,6.46,1.85,2.96,3.16,6.76,3.91,11.42.75,4.66,1.13,10.3,1.13,16.91v39.82h-11.72v-39.37c0-6.51-.38-11.72-1.13-15.63-.75-3.91-2.25-6.74-4.51-8.49-2.25-1.75-5.69-2.63-10.29-2.63-2.51,0-5.09.28-7.74.83-2.66.55-5.13,1.25-7.44,2.1-2.31.85-4.21,1.68-5.71,2.48v60.71h-11.57Z"/>
      <path class="cls-1" d="M2519.32,848.37c-7.81,0-14.1-.68-18.86-2.03-4.76-1.35-8.22-3.68-10.37-6.99-2.16-3.31-3.23-7.81-3.23-13.52,0-2.91.45-5.39,1.35-7.44.9-2.05,2.23-3.96,3.98-5.71,1.75-1.75,3.93-3.58,6.54-5.48-1.3-1-2.33-2.43-3.08-4.28-.75-1.85-1.13-3.93-1.13-6.24,0-.7.27-1.75.83-3.16.55-1.4,1.23-2.88,2.03-4.43.8-1.55,1.55-2.98,2.25-4.28-2.1-1-4.03-2.38-5.79-4.13-1.75-1.75-3.18-4.13-4.28-7.14-1.1-3.01-1.65-6.81-1.65-11.42,0-6.21,1.18-11.2,3.53-14.95,2.35-3.76,5.66-6.49,9.92-8.19,4.26-1.7,9.14-2.55,14.65-2.55,2.7,0,5.56.2,8.56.6,3.01.4,5.36.85,7.06,1.35l22.39-.6v9.92l-14.13-.3c1.4,1.4,2.58,3.26,3.53,5.56.95,2.31,1.43,5.36,1.43,9.17,0,6.51-1.1,11.62-3.31,15.33-2.2,3.71-5.46,6.31-9.77,7.81-4.31,1.5-9.72,2.25-16.23,2.25-.7,0-1.88-.07-3.53-.23-1.65-.15-2.88-.27-3.68-.37-.6,1.4-1.2,3.01-1.8,4.81-.6,1.8-.9,3.06-.9,3.76,0,1.5.17,2.68.53,3.53.35.85,1.1,1.53,2.25,2.03,1.15.5,2.93.83,5.33.98,2.41.15,5.71.22,9.92.22,7.21,0,12.97.6,17.28,1.8,4.31,1.2,7.39,3.38,9.24,6.54,1.85,3.16,2.78,7.74,2.78,13.75,0,8.51-2.96,14.65-8.87,18.41-5.91,3.76-14.18,5.64-24.8,5.64ZM2519.47,838.45c7.41,0,12.87-1.05,16.38-3.16,3.51-2.1,5.26-5.56,5.26-10.37,0-3.71-.58-6.44-1.73-8.19-1.15-1.75-3.08-2.91-5.79-3.46-2.71-.55-6.31-.83-10.82-.83-.9,0-2.16-.02-3.76-.07-1.6-.05-3.26-.1-4.96-.15-1.71-.05-3.23-.12-4.58-.22-1.35-.1-2.28-.15-2.78-.15-2.01,1.5-3.63,2.88-4.88,4.13-1.25,1.25-2.13,2.56-2.63,3.91-.5,1.35-.75,2.98-.75,4.88,0,3.31.6,5.96,1.8,7.96,1.2,2,3.33,3.46,6.39,4.36,3.05.9,7.34,1.35,12.85,1.35ZM2516.02,778.19c6.21,0,10.62-1.23,13.22-3.68,2.6-2.46,3.91-6.59,3.91-12.4s-1.3-9.97-3.91-12.47c-2.61-2.5-7.01-3.76-13.22-3.76-5.81,0-9.99,1.25-12.55,3.76-2.55,2.51-3.83,6.66-3.83,12.47s1.28,9.94,3.83,12.4c2.56,2.46,6.74,3.68,12.55,3.68Z"/>
      <path class="cls-1" d="M2629.18,813.05l28.4-103.84h26l28.25,103.84h-12.02l-7.37-26.3h-43.88l-7.37,26.3h-12.02ZM2651.12,776.09h38.77l-15.48-56.66h-7.81l-15.48,56.66Z"/>
      <path class="cls-1" d="M2772.09,848.37c-7.81,0-14.1-.68-18.86-2.03-4.76-1.35-8.22-3.68-10.37-6.99-2.16-3.31-3.23-7.81-3.23-13.52,0-2.91.45-5.39,1.35-7.44.9-2.05,2.23-3.96,3.98-5.71,1.75-1.75,3.93-3.58,6.54-5.48-1.3-1-2.33-2.43-3.08-4.28-.75-1.85-1.13-3.93-1.13-6.24,0-.7.27-1.75.83-3.16.55-1.4,1.23-2.88,2.03-4.43.8-1.55,1.55-2.98,2.25-4.28-2.1-1-4.03-2.38-5.79-4.13-1.75-1.75-3.18-4.13-4.28-7.14-1.1-3.01-1.65-6.81-1.65-11.42,0-6.21,1.18-11.2,3.53-14.95,2.35-3.76,5.66-6.49,9.92-8.19,4.26-1.7,9.14-2.55,14.65-2.55,2.7,0,5.56.2,8.56.6,3.01.4,5.36.85,7.06,1.35l22.39-.6v9.92l-14.13-.3c1.4,1.4,2.58,3.26,3.53,5.56.95,2.31,1.43,5.36,1.43,9.17,0,6.51-1.1,11.62-3.31,15.33-2.2,3.71-5.46,6.31-9.77,7.81-4.31,1.5-9.72,2.25-16.23,2.25-.7,0-1.88-.07-3.53-.23-1.65-.15-2.88-.27-3.68-.37-.6,1.4-1.2,3.01-1.8,4.81-.6,1.8-.9,3.06-.9,3.76,0,1.5.17,2.68.53,3.53.35.85,1.1,1.53,2.25,2.03,1.15.5,2.93.83,5.33.98,2.41.15,5.71.22,9.92.22,7.21,0,12.97.6,17.28,1.8,4.31,1.2,7.39,3.38,9.24,6.54,1.85,3.16,2.78,7.74,2.78,13.75,0,8.51-2.96,14.65-8.87,18.41-5.91,3.76-14.18,5.64-24.8,5.64ZM2772.24,838.45c7.41,0,12.87-1.05,16.38-3.16,3.51-2.1,5.26-5.56,5.26-10.37,0-3.71-.58-6.44-1.73-8.19-1.15-1.75-3.08-2.91-5.79-3.46-2.71-.55-6.31-.83-10.82-.83-.9,0-2.16-.02-3.76-.07-1.6-.05-3.26-.1-4.96-.15-1.71-.05-3.23-.12-4.58-.22-1.35-.1-2.28-.15-2.78-.15-2.01,1.5-3.63,2.88-4.88,4.13-1.25,1.25-2.13,2.56-2.63,3.91-.5,1.35-.75,2.98-.75,4.88,0,3.31.6,5.96,1.8,7.96,1.2,2,3.33,3.46,6.39,4.36,3.05.9,7.34,1.35,12.85,1.35ZM2768.79,778.19c6.21,0,10.62-1.23,13.22-3.68,2.6-2.46,3.91-6.59,3.91-12.4s-1.3-9.97-3.91-12.47c-2.61-2.5-7.01-3.76-13.22-3.76-5.81,0-9.99,1.25-12.55,3.76-2.55,2.51-3.83,6.66-3.83,12.47s1.28,9.94,3.83,12.4c2.56,2.46,6.74,3.68,12.55,3.68Z"/>
      <path class="cls-1" d="M2863.77,814.56c-7.51,0-13.45-1.45-17.81-4.36-4.36-2.9-7.49-7.21-9.39-12.92-1.9-5.71-2.86-12.82-2.86-21.34,0-9.52,1.3-17.16,3.91-22.92,2.6-5.76,6.26-9.97,10.97-12.62,4.71-2.65,10.27-3.98,16.68-3.98,10.02,0,17.58,2.78,22.69,8.34,5.11,5.56,7.66,14.5,7.66,26.83l-.6,8.87h-49.44c.1,7.81,1.55,13.73,4.36,17.73,2.8,4.01,7.86,6.01,15.18,6.01,2.8,0,5.88-.07,9.24-.23,3.36-.15,6.69-.32,9.99-.52,3.31-.2,6.11-.4,8.42-.6l.3,9.17c-2.4.4-5.33.8-8.79,1.2s-6.99.73-10.59.98c-3.61.25-6.91.37-9.92.37ZM2845.58,770.98h38.32c0-9.22-1.48-15.65-4.43-19.31-2.96-3.66-7.69-5.49-14.2-5.49-4.21,0-7.77.83-10.67,2.48-2.91,1.65-5.13,4.28-6.69,7.89-1.56,3.61-2.33,8.41-2.33,14.43Z"/>
      <path class="cls-1" d="M2930.94,813.05v-75.14h11.57v5.26c1.7-1,3.83-2,6.39-3.01,2.55-1,5.28-1.88,8.19-2.63,2.9-.75,5.71-1.13,8.42-1.13,5.21,0,9.47.68,12.77,2.03,3.31,1.35,5.88,3.51,7.74,6.46,1.85,2.96,3.16,6.76,3.91,11.42.75,4.66,1.13,10.3,1.13,16.91v39.82h-11.72v-39.37c0-6.51-.38-11.72-1.13-15.63-.75-3.91-2.25-6.74-4.51-8.49-2.25-1.75-5.69-2.63-10.29-2.63-2.51,0-5.09.28-7.74.83-2.66.55-5.13,1.25-7.44,2.1-2.31.85-4.21,1.68-5.71,2.48v60.71h-11.57Z"/>
      <path class="cls-1" d="M3057.48,814.56c-7.92,0-14.13-1.33-18.63-3.98-4.51-2.65-7.69-6.94-9.54-12.85-1.85-5.91-2.78-13.73-2.78-23.44,0-9.11,1.03-16.45,3.08-22.02,2.05-5.56,5.38-9.59,9.99-12.1,4.61-2.5,10.62-3.76,18.03-3.76,1.7,0,3.78.13,6.24.37,2.46.25,4.98.55,7.59.9,2.6.35,4.86.68,6.76.98l-.45,9.62c-1.71-.2-3.66-.4-5.86-.6-2.2-.2-4.36-.38-6.46-.53-2.1-.15-3.86-.23-5.26-.23-5.71,0-10.14.9-13.3,2.71-3.16,1.8-5.36,4.69-6.61,8.64-1.25,3.96-1.88,9.29-1.88,16,0,7.32.55,13.15,1.65,17.51,1.1,4.36,3.21,7.49,6.31,9.39,3.1,1.9,7.71,2.86,13.83,2.86,1.4,0,3.18-.08,5.34-.23,2.15-.15,4.36-.32,6.61-.53,2.25-.2,4.23-.35,5.94-.45l.3,9.62c-2.01.3-4.31.6-6.91.9-2.61.3-5.16.58-7.66.83-2.5.25-4.61.37-6.31.37Z"/>
      <path class="cls-1" d="M3128.71,846.27l9.77-33.21h-11.27l-21.19-75.14h11.72l18.34,65.07h5.11l18.48-65.07h11.72l-30.96,108.35h-11.72Z"/>
    </g>
  </g>
  <g>
    <polygon class="cls-4" points="1051.47 475.22 1051.47 815.07 960.44 815.07 960.44 390.44 1051.47 475.22"/>
    <path class="cls-2" d="M1448.77,815.07h128.74l-222.72-221.3-7.84-7.84c42.92-13.58,78.42-43.85,98.88-83.2,12.1-23.27,18.94-49.71,18.94-77.76s-6.84-54.49-18.95-77.76c-28.12-54.09-84.67-91.03-149.85-91.03h-406.11l91.03,91.03h315.08c42.95,0,77.76,34.81,77.76,77.76s-34.81,77.76-77.76,77.76h-160.95l313.74,312.33Z"/>
  </g>
</svg>